<?xml version="1.0" standalone="no"?>
<!DOCTYPE svg PUBLIC "-//W3C//DTD SVG 20010904//EN"
 "http://www.w3.org/TR/2001/REC-SVG-20010904/DTD/svg10.dtd">
<svg version="1.0" xmlns="http://www.w3.org/2000/svg"
 width="700.000000pt" height="700.000000pt" viewBox="0 0 700.000000 700.000000"
 preserveAspectRatio="xMidYMid meet">
<metadata>
Created by potrace 1.11, written by Peter Selinger 2001-2013
</metadata>
<g transform="translate(0.000000,700.000000) scale(0.100000,-0.100000)"
fill="#000000" stroke="none">
<path d="M3278 6995 c-2 -1 -39 -5 -83 -9 -129 -10 -399 -51 -467 -72 -9 -3
-27 -7 -40 -10 -13 -3 -27 -6 -33 -8 -5 -1 -26 -6 -45 -10 -84 -19 -365 -114
-434 -147 -22 -11 -44 -19 -48 -19 -14 0 -256 -120 -343 -170 -757 -435 -1311
-1098 -1593 -1905 -60 -172 -123 -421 -146 -580 -2 -16 -8 -50 -12 -75 -20
-131 -29 -273 -29 -495 1 -194 7 -327 20 -406 2 -13 6 -46 10 -74 9 -76 16
-116 25 -160 5 -22 11 -53 14 -70 56 -306 217 -727 399 -1040 179 -309 461
-651 723 -876 28 -24 67 -58 86 -75 78 -67 416 -304 434 -304 2 0 23 -12 46
-26 74 -47 312 -162 439 -212 269 -107 566 -187 804 -217 22 -2 56 -7 75 -10
194 -27 657 -27 850 1 353 51 644 129 920 246 206 87 462 227 643 353 279 192
628 530 812 785 22 30 42 57 45 60 17 16 152 229 202 320 182 329 305 661 377
1017 16 81 33 175 36 208 4 33 9 69 11 80 11 55 18 197 19 350 0 189 -16 264
-75 366 -17 27 -30 53 -30 58 0 16 -131 141 -189 180 -33 23 -102 55 -153 72
-249 84 -532 6 -700 -193 -56 -66 -102 -146 -127 -224 -24 -74 -30 -119 -36
-264 -5 -122 -11 -190 -21 -255 -3 -22 -8 -53 -10 -70 -22 -143 -103 -392
-181 -555 -40 -83 -149 -273 -174 -304 -5 -6 -29 -38 -54 -71 -238 -316 -576
-574 -943 -719 -87 -34 -260 -88 -327 -101 -132 -26 -183 -34 -263 -42 -101
-9 -314 -9 -427 1 -396 34 -835 214 -1155 473 -138 112 -318 301 -396 415 -16
24 -32 45 -35 48 -14 12 -120 194 -161 277 -67 131 -150 366 -172 483 -2 14
-12 61 -20 105 -41 205 -41 519 -1 750 120 688 570 1285 1200 1590 109 53 263
115 325 130 8 2 40 11 70 20 143 39 306 62 510 71 150 6 230 21 313 58 144 64
252 167 325 312 46 92 65 175 65 289 0 288 -182 536 -460 626 -58 19 -94 22
-240 24 -95 2 -173 2 -175 0z"/>
</g>
</svg>
