<svg width="60" height="136" viewBox="0 0 60 136" fill="none" xmlns="http://www.w3.org/2000/svg">
<path d="M25.524 16.5093C11.4498 16.5093 0 27.8571 0 41.8043C0 55.7515 11.4498 67.0993 25.524 67.0993C39.5983 67.0993 51.0481 55.7515 51.0481 41.8043C51.0481 27.8571 39.5975 16.5093 25.524 16.5093ZM25.524 57.6125C16.7291 57.6125 9.57271 50.5211 9.57271 41.8043C9.57271 33.0875 16.7283 25.9961 25.524 25.9961C34.3198 25.9961 41.4754 33.0875 41.4754 41.8043C41.4754 50.5211 34.3198 57.6125 25.524 57.6125Z" fill="#8360C3" fill-opacity="0.75"/>
<path d="M25.5244 85.0189C11.4499 85.0189 0 96.3669 0 110.314C0 124.262 11.4499 135.609 25.5244 135.609C39.5989 135.609 51.0489 124.262 51.0489 110.314C51.0489 96.3669 39.5981 85.0189 25.5244 85.0189ZM25.5244 126.122C16.7294 126.122 9.57286 119.03 9.57286 110.314C9.57286 101.597 16.7286 94.5059 25.5244 94.5059C34.3203 94.5059 41.476 101.597 41.476 110.314C41.476 119.03 34.3203 126.122 25.5244 126.122Z" fill="#8360C3" fill-opacity="0.75"/>
</svg>
