<svg width="180" height="60" viewBox="0 0 180 60" fill="none" xmlns="http://www.w3.org/2000/svg">
<path d="M25.5245 0C11.4499 0 0 11.3472 0 25.2946C0 27.9138 2.14352 30.0381 4.78643 30.0381C7.42934 30.0381 9.57287 27.9138 9.57287 25.2946C9.57287 16.5785 16.7286 9.48696 25.5245 9.48696C34.3203 9.48696 41.476 16.5785 41.476 25.2946C41.476 34.0107 34.3203 41.103 25.5245 41.103C22.8815 41.103 20.738 43.2273 20.738 45.8465C20.738 48.4657 22.8815 50.59 25.5245 50.59C39.599 50.59 51.0489 39.242 51.0489 25.2946C51.0489 11.3472 39.5982 0 25.5245 0Z" fill="#8360C3" fill-opacity="0.75"/>
<path d="M89.8616 0C75.7871 0 64.3372 11.3472 64.3372 25.2946C64.3372 39.242 75.7879 50.59 89.8616 50.59C103.935 50.59 115.386 39.242 115.386 25.2946C115.386 11.3472 103.935 0 89.8616 0ZM89.8616 41.103C81.0657 41.103 73.91 34.0115 73.91 25.2946C73.91 16.5785 81.0657 9.48696 89.8616 9.48696C98.6575 9.48696 105.813 16.5785 105.813 25.2946C105.813 34.0115 98.6575 41.103 89.8616 41.103Z" fill="#8360C3" fill-opacity="0.75"/>
<path d="M154.199 50.59C168.273 50.59 179.723 39.242 179.723 25.2946C179.723 11.3472 168.273 0 154.199 0C140.124 0 128.674 11.3472 128.674 25.2946C128.674 39.242 140.124 50.59 154.199 50.59ZM154.199 9.48696C162.994 9.48696 170.15 16.5785 170.15 25.2946C170.15 34.0115 162.995 41.103 154.199 41.103C145.403 41.103 138.247 34.0115 138.247 25.2946C138.247 16.5785 145.403 9.48696 154.199 9.48696Z" fill="#8360C3" fill-opacity="0.75"/>
</svg>
