<svg width="175" height="175" viewBox="0 0 175 175" fill="none" xmlns="http://www.w3.org/2000/svg">
<path d="M19.1628 0C8.5962 0 0 8.51906 0 18.9903C0 20.9567 1.60928 22.5515 3.59348 22.5515C5.57768 22.5515 7.18696 20.9567 7.18696 18.9903C7.18696 12.4465 12.5592 7.12246 19.1628 7.12246C25.7664 7.12246 31.1387 12.4465 31.1387 18.9903C31.1387 25.534 25.7664 30.8587 19.1628 30.8587C17.1786 30.8587 15.5693 32.4535 15.5693 34.4199C15.5693 36.3863 17.1786 37.9811 19.1628 37.9811C29.7294 37.9811 38.3256 29.4615 38.3256 18.9903C38.3256 8.51906 29.7288 0 19.1628 0Z" fill="#8360C3" fill-opacity="0.75"/>
<path d="M87.5 0C76.9334 0 68.3372 8.51906 68.3372 18.9903C68.3372 29.4615 76.934 37.9811 87.5 37.9811C98.066 37.9811 106.663 29.4615 106.663 18.9903C106.663 8.51906 98.066 0 87.5 0ZM87.5 30.8587C80.8964 30.8587 75.5241 25.5346 75.5241 18.9903C75.5241 12.4465 80.8964 7.12246 87.5 7.12246C94.1036 7.12246 99.4758 12.4465 99.4758 18.9903C99.4758 25.5346 94.1036 30.8587 87.5 30.8587Z" fill="#8360C3" fill-opacity="0.75"/>
<path d="M155.837 37.9811C166.404 37.9811 175 29.4615 175 18.9903C175 8.51906 166.404 0 155.837 0C145.271 0 136.674 8.51906 136.674 18.9903C136.674 29.4615 145.271 37.9811 155.837 37.9811ZM155.837 7.12246C162.44 7.12246 167.813 12.4465 167.813 18.9903C167.813 25.5346 162.441 30.8587 155.837 30.8587C149.234 30.8587 143.861 25.5346 143.861 18.9903C143.861 12.4465 149.234 7.12246 155.837 7.12246Z" fill="#8360C3" fill-opacity="0.75"/>
<path d="M19.1628 68.5093C8.5962 68.5093 0 77.0289 0 87.5001C0 97.9713 8.5962 106.491 19.1628 106.491C29.7294 106.491 38.3256 97.9713 38.3256 87.5001C38.3256 77.0289 29.7288 68.5093 19.1628 68.5093ZM19.1628 99.3685C12.5598 99.3685 7.18696 94.0445 7.18696 87.5001C7.18696 80.9558 12.5592 75.6317 19.1628 75.6317C25.7664 75.6317 31.1387 80.9558 31.1387 87.5001C31.1387 94.0445 25.7664 99.3685 19.1628 99.3685Z" fill="#8360C3" fill-opacity="0.75"/>
<path d="M19.1628 137.019C8.5962 137.019 0 145.539 0 156.01C0 166.481 8.5962 175 19.1628 175C29.7294 175 38.3256 166.481 38.3256 156.01C38.3256 145.539 29.7288 137.019 19.1628 137.019ZM19.1628 167.878C12.5598 167.878 7.18696 162.554 7.18696 156.01C7.18696 149.465 12.5592 144.141 19.1628 144.141C25.7664 144.141 31.1387 149.465 31.1387 156.01C31.1387 162.554 25.7664 167.878 19.1628 167.878Z" fill="#8360C3" fill-opacity="0.75"/>
</svg>
