<svg width="60" height="113" viewBox="0 0 60 113" fill="none" xmlns="http://www.w3.org/2000/svg">
<path d="M25.525 0.484985C11.4502 0.484985 0 11.7619 0 25.622C0 39.4821 11.4502 50.759 25.525 50.759C39.5998 50.759 51.05 39.4821 51.05 25.622C51.05 11.7619 39.599 0.484985 25.525 0.484985ZM25.525 41.3315C16.7297 41.3315 9.57307 34.2844 9.57307 25.622C9.57307 16.9596 16.7289 9.91254 25.525 9.91254C34.3211 9.91254 41.4769 16.9596 41.4769 25.622C41.4769 34.2844 34.3211 41.3315 25.525 41.3315Z" fill="#8360C3" fill-opacity="0.75"/>
<path d="M25.5244 62.726C11.4499 62.726 0 74.003 0 87.8633C0 101.724 11.4499 113 25.5244 113C39.5989 113 51.0489 101.724 51.0489 87.8633C51.0489 74.003 39.5981 62.726 25.5244 62.726ZM25.5244 103.572C16.7294 103.572 9.57286 96.525 9.57286 87.8633C9.57286 79.2009 16.7286 72.1537 25.5244 72.1537C34.3203 72.1537 41.476 79.2009 41.476 87.8633C41.476 96.525 34.3203 103.572 25.5244 103.572Z" fill="#8360C3" fill-opacity="0.75"/>
</svg>
