<svg width="175" height="60" viewBox="0 0 175 60" fill="none" xmlns="http://www.w3.org/2000/svg">
<path d="M109.364 0H65.636C63.7492 0 62.2197 1.53064 62.2197 3.41795V47.168C62.2197 49.0553 63.7492 50.586 65.636 50.586H109.364C111.251 50.586 112.781 49.0553 112.781 47.168V3.41795C112.78 1.53064 111.251 0 109.364 0ZM105.948 43.7497H69.0522V6.8359H105.948V43.7497V43.7497Z" fill="#34B994" fill-opacity="0.75"/>
<path d="M171.584 0H127.855C125.969 0 124.439 1.53064 124.439 3.41795V47.168C124.439 49.0553 125.969 50.586 127.855 50.586H171.584C173.47 50.586 175 49.0553 175 47.168V3.41795C175 1.53064 173.47 0 171.584 0ZM168.168 43.7497H131.272V6.8359H168.168V43.7497Z" fill="#34B994" fill-opacity="0.75"/>
<path d="M47.1447 0H3.41626C1.52954 0 0 1.53064 0 3.41795V47.168C0 49.0553 1.52954 50.586 3.41626 50.586H8.6273C10.514 50.586 12.0436 49.0553 12.0436 47.168C12.0436 45.2807 10.514 43.7501 8.6273 43.7501H6.83252V6.8359H43.7281V43.7497H39.146C37.2593 43.7497 35.7297 45.2804 35.7297 47.1677C35.7297 49.055 37.2593 50.5856 39.146 50.5856H47.1444C49.0311 50.5856 50.5607 49.055 50.5607 47.1677V3.41795C50.561 1.53064 49.0315 0 47.1447 0Z" fill="#34B994" fill-opacity="0.75"/>
<path d="M26.5306 44.7513C25.8952 44.1152 25.0137 43.7496 24.1155 43.7496C23.2135 43.7496 22.3357 44.1152 21.7003 44.7513C21.0649 45.387 20.6992 46.2689 20.6992 47.1676C20.6992 48.0666 21.0646 48.9482 21.7003 49.5839C22.3357 50.22 23.2172 50.5859 24.1155 50.5859C25.0137 50.5859 25.8952 50.2203 26.5306 49.5839C27.166 48.9485 27.5317 48.0666 27.5317 47.1676C27.5317 46.2689 27.1664 45.387 26.5306 44.7513Z" fill="#34B994" fill-opacity="0.75"/>
</svg>
