<svg width="338" height="339" viewBox="0 0 338 339" fill="none" xmlns="http://www.w3.org/2000/svg">
<circle cx="213" cy="214" r="125" fill="#34B994" fill-opacity="0.35"/>
<path d="M24.6379 0C11.0523 0 0 11.0523 0 24.6371C0 27.1883 2.06907 29.2573 4.62019 29.2573C7.1713 29.2573 9.24037 27.1883 9.24037 24.6371C9.24037 16.1476 16.1476 9.24037 24.6379 9.24037C33.1283 9.24037 40.0354 16.1476 40.0354 24.6371C40.0354 33.1267 33.1283 40.0347 24.6379 40.0347C22.0868 40.0347 20.0177 42.1038 20.0177 44.6549C20.0177 47.206 22.0868 49.2751 24.6379 49.2751C38.2236 49.2751 49.2758 38.222 49.2758 24.6371C49.2758 11.0523 38.2228 0 24.6379 0Z" fill="#8360C3"/>
<path d="M112.5 0C98.9143 0 87.8621 11.0523 87.8621 24.6371C87.8621 38.222 98.9151 49.2751 112.5 49.2751C126.085 49.2751 137.138 38.222 137.138 24.6371C137.138 11.0523 126.085 0 112.5 0ZM112.5 40.0347C104.01 40.0347 97.1025 33.1275 97.1025 24.6371C97.1025 16.1476 104.01 9.24037 112.5 9.24037C120.99 9.24037 127.898 16.1476 127.898 24.6371C127.898 33.1275 120.99 40.0347 112.5 40.0347Z" fill="#8360C3"/>
<path d="M200.362 49.2751C213.948 49.2751 225 38.222 225 24.6371C225 11.0523 213.948 0 200.362 0C186.776 0 175.724 11.0523 175.724 24.6371C175.724 38.222 186.776 49.2751 200.362 49.2751ZM200.362 9.24037C208.852 9.24037 215.76 16.1476 215.76 24.6371C215.76 33.1275 208.852 40.0347 200.362 40.0347C191.872 40.0347 184.965 33.1275 184.965 24.6371C184.965 16.1476 191.872 9.24037 200.362 9.24037Z" fill="#8360C3"/>
<path d="M24.6379 88.8808C11.0523 88.8808 0 99.9339 0 113.519C0 127.104 11.0523 138.157 24.6379 138.157C38.2236 138.157 49.2758 127.104 49.2758 113.519C49.2758 99.9339 38.2228 88.8808 24.6379 88.8808ZM24.6379 128.916C16.1483 128.916 9.24037 122.009 9.24037 113.519C9.24037 105.028 16.1476 98.1212 24.6379 98.1212C33.1283 98.1212 40.0354 105.028 40.0354 113.519C40.0354 122.009 33.1283 128.916 24.6379 128.916Z" fill="#8360C3"/>
<path d="M132.518 108.899C129.967 108.899 127.898 110.968 127.898 113.519C127.898 122.008 120.99 128.916 112.5 128.916C104.01 128.916 97.1025 122.008 97.1025 113.519C97.1025 105.029 104.01 98.1212 112.5 98.1212C115.051 98.1212 117.12 96.0521 117.12 93.501C117.12 90.9499 115.051 88.8808 112.5 88.8808C98.9143 88.8808 87.8621 99.9339 87.8621 113.519C87.8621 127.104 98.9151 138.157 112.5 138.157C126.085 138.157 137.138 127.104 137.138 113.519C137.138 110.967 135.069 108.899 132.518 108.899Z" fill="#8360C3"/>
<path d="M200.362 88.8808C186.776 88.8808 175.724 99.9339 175.724 113.519C175.724 127.104 186.777 138.157 200.362 138.157C213.947 138.157 225 127.104 225 113.519C225 99.9339 213.948 88.8808 200.362 88.8808ZM200.362 128.916C191.872 128.916 184.965 122.009 184.965 113.519C184.965 105.028 191.872 98.1212 200.362 98.1212C208.852 98.1212 215.76 105.028 215.76 113.519C215.76 122.009 208.852 128.916 200.362 128.916Z" fill="#8360C3"/>
<path d="M24.6379 177.762C11.0523 177.762 0 188.815 0 202.4C0 215.985 11.0523 227.038 24.6379 227.038C38.2236 227.038 49.2758 215.985 49.2758 202.4C49.2758 188.815 38.2228 177.762 24.6379 177.762ZM24.6379 217.797C16.1483 217.797 9.24037 210.89 9.24037 202.4C9.24037 193.91 16.1476 187.003 24.6379 187.003C33.1283 187.003 40.0354 193.91 40.0354 202.4C40.0354 210.89 33.1283 217.797 24.6379 217.797Z" fill="#8360C3"/>
<path d="M112.5 177.762C98.9143 177.762 87.8621 188.815 87.8621 202.4C87.8621 215.985 98.9151 227.038 112.5 227.038C126.085 227.038 137.138 215.985 137.138 202.4C137.138 188.815 126.085 177.762 112.5 177.762ZM112.5 217.797C104.01 217.797 97.1025 210.89 97.1025 202.4C97.1025 193.91 104.01 187.003 112.5 187.003C120.99 187.003 127.898 193.91 127.898 202.4C127.898 210.89 120.99 217.797 112.5 217.797Z" fill="#8360C3"/>
<path d="M200.362 177.762C186.776 177.762 175.724 188.815 175.724 202.4C175.724 215.985 186.777 227.038 200.362 227.038C213.947 227.038 225 215.985 225 202.4C225 188.815 213.948 177.762 200.362 177.762ZM200.362 217.797C191.872 217.797 184.965 210.89 184.965 202.4C184.965 193.91 191.872 187.003 200.362 187.003C208.852 187.003 215.76 193.91 215.76 202.4C215.76 210.89 208.852 217.797 200.362 217.797Z" fill="#8360C3"/>
</svg>
