<svg width="188" height="60" viewBox="0 0 188 60" fill="none" xmlns="http://www.w3.org/2000/svg">
<path d="M25.5245 0C11.4499 0 0 11.3472 0 25.2946C0 27.9138 2.14352 30.0381 4.78643 30.0381C7.42934 30.0381 9.57287 27.9138 9.57287 25.2946C9.57287 16.5785 16.7286 9.48696 25.5245 9.48696C34.3203 9.48696 41.476 16.5785 41.476 25.2946C41.476 34.0107 34.3203 41.103 25.5245 41.103C22.8815 41.103 20.738 43.2273 20.738 45.8465C20.738 48.4657 22.8815 50.59 25.5245 50.59C39.599 50.59 51.0489 39.242 51.0489 25.2946C51.0489 11.3472 39.5982 0 25.5245 0Z" fill="#8360C3" fill-opacity="0.75"/>
<path d="M93.8616 0C79.7871 0 68.3372 11.3472 68.3372 25.2946C68.3372 39.242 79.7879 50.59 93.8616 50.59C107.935 50.59 119.386 39.242 119.386 25.2946C119.386 11.3472 107.935 0 93.8616 0ZM93.8616 41.103C85.0657 41.103 77.91 34.0115 77.91 25.2946C77.91 16.5785 85.0657 9.48696 93.8616 9.48696C102.657 9.48696 109.813 16.5785 109.813 25.2946C109.813 34.0115 102.657 41.103 93.8616 41.103Z" fill="#8360C3" fill-opacity="0.75"/>
<path d="M162.199 50.59C176.273 50.59 187.723 39.242 187.723 25.2946C187.723 11.3472 176.273 0 162.199 0C148.124 0 136.674 11.3472 136.674 25.2946C136.674 39.242 148.124 50.59 162.199 50.59ZM162.199 9.48696C170.994 9.48696 178.15 16.5785 178.15 25.2946C178.15 34.0115 170.995 41.103 162.199 41.103C153.403 41.103 146.247 34.0115 146.247 25.2946C146.247 16.5785 153.403 9.48696 162.199 9.48696Z" fill="#8360C3" fill-opacity="0.75"/>
</svg>
