<svg width="500" height="500" viewBox="0 0 500 500" fill="none" xmlns="http://www.w3.org/2000/svg">
<path d="M58.6559 5C29.0694 5 5 28.8534 5 58.1727C5 63.6786 9.50598 68.1442 15.0617 68.1442C20.6175 68.1442 25.1235 63.6786 25.1235 58.1727C25.1235 39.8502 40.1658 24.9429 58.6559 24.9429C77.146 24.9429 92.1883 39.8502 92.1883 58.1727C92.1883 76.4952 77.146 91.4042 58.6559 91.4042C53.1001 91.4042 48.5942 95.8698 48.5942 101.376C48.5942 106.882 53.1001 111.347 58.6559 111.347C88.2424 111.347 112.312 87.4921 112.312 58.1727C112.312 28.8534 88.2408 5 58.6559 5Z" fill="#8360C3"/>
<path d="M250 5C220.413 5 196.344 28.8534 196.344 58.1727C196.344 87.4921 220.415 111.347 250 111.347C279.585 111.347 303.656 87.4921 303.656 58.1727C303.656 28.8534 279.585 5 250 5ZM250 91.4042C231.51 91.4042 216.467 76.4969 216.467 58.1727C216.467 39.8502 231.51 24.9429 250 24.9429C268.49 24.9429 283.532 39.8502 283.532 58.1727C283.532 76.4969 268.49 91.4042 250 91.4042Z" fill="#8360C3"/>
<path d="M441.344 111.347C470.93 111.347 495 87.4921 495 58.1727C495 28.8534 470.93 5 441.344 5C411.757 5 387.688 28.8534 387.688 58.1727C387.688 87.4921 411.757 111.347 441.344 111.347ZM441.344 24.9429C459.832 24.9429 474.876 39.8502 474.876 58.1727C474.876 76.4969 459.834 91.4042 441.344 91.4042C422.854 91.4042 407.811 76.4969 407.811 58.1727C407.811 39.8502 422.854 24.9429 441.344 24.9429Z" fill="#8360C3"/>
<path d="M58.6559 196.826C29.0694 196.826 5 220.681 5 250C5 279.319 29.0694 303.174 58.6559 303.174C88.2424 303.174 112.312 279.319 112.312 250C112.312 220.681 88.2408 196.826 58.6559 196.826ZM58.6559 283.232C40.1675 283.232 25.1235 268.324 25.1235 250C25.1235 231.676 40.1658 216.769 58.6559 216.769C77.146 216.769 92.1883 231.676 92.1883 250C92.1883 268.324 77.146 283.232 58.6559 283.232Z" fill="#8360C3"/>
<path d="M293.594 240.029C288.038 240.029 283.532 244.494 283.532 250C283.532 268.323 268.49 283.232 250 283.232C231.51 283.232 216.467 268.323 216.467 250C216.467 231.678 231.51 216.769 250 216.769C255.556 216.769 260.062 212.303 260.062 206.797C260.062 201.291 255.556 196.826 250 196.826C220.413 196.826 196.344 220.681 196.344 250C196.344 279.319 220.415 303.174 250 303.174C279.585 303.174 303.656 279.319 303.656 250C303.656 244.492 299.15 240.029 293.594 240.029Z" fill="#8360C3"/>
<path d="M441.344 196.826C411.757 196.826 387.688 220.681 387.688 250C387.688 279.319 411.759 303.174 441.344 303.174C470.929 303.174 495 279.319 495 250C495 220.681 470.93 196.826 441.344 196.826ZM441.344 283.232C422.854 283.232 407.811 268.324 407.811 250C407.811 231.676 422.854 216.769 441.344 216.769C459.832 216.769 474.876 231.676 474.876 250C474.876 268.324 459.832 283.232 441.344 283.232Z" fill="#8360C3"/>
<path d="M58.6559 388.653C29.0694 388.653 5 412.508 5 441.827C5 471.147 29.0694 495 58.6559 495C88.2424 495 112.312 471.147 112.312 441.827C112.312 412.508 88.2408 388.653 58.6559 388.653ZM58.6559 475.057C40.1675 475.057 25.1235 460.15 25.1235 441.827C25.1235 423.503 40.1658 408.596 58.6559 408.596C77.146 408.596 92.1883 423.503 92.1883 441.827C92.1883 460.15 77.146 475.057 58.6559 475.057Z" fill="#8360C3"/>
<path d="M250 388.653C220.413 388.653 196.344 412.508 196.344 441.827C196.344 471.147 220.415 495 250 495C279.585 495 303.656 471.147 303.656 441.827C303.656 412.508 279.585 388.653 250 388.653ZM250 475.057C231.51 475.057 216.467 460.15 216.467 441.827C216.467 423.503 231.51 408.596 250 408.596C268.49 408.596 283.532 423.503 283.532 441.827C283.532 460.15 268.49 475.057 250 475.057Z" fill="#8360C3"/>
<path d="M441.344 388.653C411.757 388.653 387.688 412.508 387.688 441.827C387.688 471.147 411.759 495 441.344 495C470.929 495 495 471.147 495 441.827C495 412.508 470.93 388.653 441.344 388.653ZM441.344 475.057C422.854 475.057 407.811 460.15 407.811 441.827C407.811 423.503 422.854 408.596 441.344 408.596C459.832 408.596 474.876 423.503 474.876 441.827C474.876 460.15 459.832 475.057 441.344 475.057Z" fill="#8360C3"/>
</svg>
