<svg width="60" height="113" viewBox="0 0 60 113" fill="none" xmlns="http://www.w3.org/2000/svg">
<path d="M56.5838 0.207031H12.8553C10.9686 0.207031 9.43903 1.73767 9.43903 3.62498V47.3751C9.43903 49.2624 10.9686 50.793 12.8553 50.793H56.5838C58.4705 50.793 60 49.2624 60 47.3751V3.62498C60 1.73733 58.4705 0.207031 56.5838 0.207031ZM53.1675 43.9568H16.2715V7.04292H53.1675V43.9568Z" fill="#34B994" fill-opacity="0.75"/>
<path d="M56.5838 62.4137H51.3727C49.486 62.4137 47.9565 63.9443 47.9565 65.8316C47.9565 67.719 49.486 69.2496 51.3727 69.2496H53.1675V106.163H16.2715V69.2499H20.8537C22.7404 69.2499 24.2699 67.7193 24.2699 65.832C24.2699 63.9447 22.7404 62.414 20.8537 62.414H12.8553C10.9686 62.414 9.43903 63.9447 9.43903 65.832V109.582C9.43903 111.469 10.9686 113 12.8553 113H56.5838C58.4705 113 60 111.469 60 109.582V65.8316C60 63.9443 58.4705 62.4137 56.5838 62.4137Z" fill="#34B994" fill-opacity="0.75"/>
</svg>
