<svg width="180" height="60" viewBox="0 0 180 60" fill="none" xmlns="http://www.w3.org/2000/svg">
<path d="M114.364 0H70.636C68.7492 0 67.2197 1.53064 67.2197 3.41795V47.168C67.2197 49.0553 68.7492 50.586 70.636 50.586H114.364C116.251 50.586 117.781 49.0553 117.781 47.168V3.41795C117.78 1.53064 116.251 0 114.364 0ZM110.948 43.7497H74.0522V6.8359H110.948V43.7497Z" fill="#34B994" fill-opacity="0.75"/>
<path d="M176.584 0H132.855C130.969 0 129.439 1.53064 129.439 3.41795V47.168C129.439 49.0553 130.969 50.586 132.855 50.586H176.584C178.47 50.586 180 49.0553 180 47.168V3.41795C180 1.53064 178.47 0 176.584 0ZM173.167 43.7497H136.272V6.8359H173.167V43.7497Z" fill="#34B994" fill-opacity="0.75"/>
<path d="M52.1447 0H8.41626C6.52954 0 5 1.53064 5 3.41795V47.168C5 49.0553 6.52954 50.586 8.41626 50.586H13.6273C15.514 50.586 17.0436 49.0553 17.0436 47.168C17.0436 45.2807 15.514 43.7501 13.6273 43.7501H11.8325V6.8359H48.7281V43.7497H44.146C42.2593 43.7497 40.7297 45.2804 40.7297 47.1677C40.7297 49.055 42.2593 50.5856 44.146 50.5856H52.1444C54.0311 50.5856 55.5606 49.055 55.5606 47.1677V3.41795C55.561 1.53064 54.0315 0 52.1447 0Z" fill="#34B994" fill-opacity="0.75"/>
<path d="M31.5306 44.7513C30.8952 44.1152 30.0137 43.7496 29.1155 43.7496C28.2135 43.7496 27.3357 44.1152 26.7003 44.7513C26.0649 45.387 25.6992 46.2689 25.6992 47.1676C25.6992 48.0666 26.0646 48.9482 26.7003 49.5839C27.3357 50.22 28.2172 50.5859 29.1155 50.5859C30.0137 50.5859 30.8952 50.2203 31.5306 49.5839C32.166 48.9485 32.5317 48.0666 32.5317 47.1676C32.5317 46.2689 32.1664 45.387 31.5306 44.7513Z" fill="#34B994" fill-opacity="0.75"/>
</svg>
